<svg xmlns="http://www.w3.org/2000/svg" viewBox="0 0 1024 1024" role="img" aria-label="Hushomatic icon">
    <rect width="1024" height="1024" fill="#5b8def"/>
    <path d="M308.9,323.8L715,323.8A54.5,54.5 0 0 1 769.4,378.2L769.4,398A54.5,54.5 0 0 1 715,452.5L308.9,452.5A54.5,54.5 0 0 1 254.4,398L254.4,378.2A54.5,54.5 0 0 1 308.9,323.8Z" fill="#f6f4ef"/>
    <path d="M353.5,487.2L670.4,487.2A42.1,42.1 0 0 1 712.5,529.3L712.5,546.6A42.1,42.1 0 0 1 670.4,588.7L353.5,588.7A42.1,42.1 0 0 1 311.4,546.6L311.4,529.3A42.1,42.1 0 0 1 353.5,487.2Z" fill="#f6f4ef" fill-opacity="0.64"/>
    <path d="M388.1,623.3L638.2,623.3A32.2,32.2 0 0 1 670.4,655.5L670.4,670.4A32.2,32.2 0 0 1 638.2,702.6L388.1,702.6A32.2,32.2 0 0 1 355.9,670.4L355.9,655.5A32.2,32.2 0 0 1 388.1,623.3Z" fill="#f6f4ef" fill-opacity="0.35"/>
    <circle cx="715" cy="388.1" r="24.8" fill="#0c0e14"/>
</svg>
